<svg xmlns="http://www.w3.org/2000/svg" viewBox="0 0 12.7 12.7"><g fill="#4381f8" class="color000000 svgShape" transform="translate(-23.794 -9.714)"><g class="color000000 svgShape" transform="translate(23.794 10.444)"><path d="m 10.909226,6.721325 c -0.0052,1.678e-4 -0.01729,8.507e-4 -0.01813,0.00101 C 10.678249,6.736279 10.475524,6.809468 10.301,6.9267541 L 8.4667708,7.8692927 C 8.3382416,7.7666814 8.1906436,7.6900263 8.0287299,7.6573213 L 6.2302445,7.210721 C 6.0240002,7.1340477 5.8059391,7.083192 5.5812391,7.0621898 c -0.022108,-0.00209 -0.045363,-0.00441 -0.069482,-0.00604 -5.156e-4,-2.6e-6 -0.00101,-2.6e-6 -0.00152,0 h -0.010069 c -0.088586,-0.00543 -0.1770277,-0.00687 -0.2658455,-0.00352 -0.022038,8.249e-4 -0.044916,0.00155 -0.068979,0.00302 C 4.8663136,7.0742286 4.5883517,7.156811 4.332561,7.26963 4.3316072,7.2700425 4.330501,7.2702229 4.329541,7.27064 4.309485,7.27611 4.289329,7.2806 4.269625,7.289271 L 2.932844,7.8763414 C 2.8643779,7.9062894 2.8284902,7.9821473 2.8487602,8.0540752 L 2.932844,7.8763414 2.6307467,8.0102711 H 2.6141406 1.2713187 C 0.86242815,8.0102239 0.52916663,8.34421 0.52916663,8.7529268 v 1.9847782 c 0,0.408717 0.33343537,0.742152 0.74215207,0.742152 h 1.3428219 2.2481066 l 3.1836007,0.0096 c 4.124e-4,1e-6 0.00111,1e-6 0.00152,0 0.016901,-9e-6 0.03341,-3.09e-4 0.049343,-10e-4 0.00119,-1.54e-4 0.00235,-3.09e-4 0.00352,-5.15e-4 0.2679215,-0.01365 0.5241175,-0.116144 0.7270474,-0.292531 L 11.692674,8.8808057 c 0.0203,-0.016493 0.03593,-0.03802 0.04532,-0.062433 0.279065,-0.2404826 0.449876,-0.5856338 0.431496,-0.9571446 -0.0124,-0.24708 -0.1004,-0.4746425 -0.239664,-0.6595787 -0.2318,-0.3077964 -0.60775,-0.5004371 -1.019075,-0.4803347 z m 0.03877,0.8821237 c 0.0015,2.3e-5 0.003,2.3e-5 0.0045,0 0.07332,-0.0037 0.175051,0.032469 0.231104,0.083077 0.05708,0.051535 0.100239,0.1420655 0.104224,0.2190203 0.0038,0.075841 -0.03088,0.1728209 -0.08157,0.2290904 -0.01,0.01101 -0.02494,0.024768 -0.04431,0.039273 -1.68e-4,1.673e-4 -3.35e-4,3.351e-4 -5.16e-4,5.156e-4 -0.0038,0.0029 -0.0079,0.00603 -0.01158,0.00906 L 8.2502559,10.52877 c -3.351e-4,1.66e-4 -6.702e-4,3.35e-4 -0.00101,5.15e-4 l -5.155e-4,5.16e-4 c -0.00119,6.44e-4 -0.00237,0.0013 -0.00352,0.002 -0.049319,0.04059 -0.1279477,0.07136 -0.1898177,0.07452 -0.0062,2.56e-4 -0.00481,3.87e-4 -0.00806,5.16e-4 -0.00302,-2.58e-4 -0.00604,-4.39e-4 -0.00906,-5.16e-4 l -3.379942,-0.0101 c -0.011005,-3.2e-5 -0.021982,0.0012 -0.032727,0.0035 H 2.6141406 1.4087729 V 8.8913892 h 1.2053677 c 0.00555,-2.7e-5 0.0111,-3.609e-4 0.016615,-0.00101 h 0.1480276 c 0.081708,0 0.1515341,-0.026581 0.2054261,-0.055385 l -0.010069,0.00503 1.0578435,-0.464726 c 0.016447,-0.00721 0.013835,-0.00648 0.00906,-0.00453 l 0.00253,-0.00101 0.5563625,-0.2446988 c 0.00902,-0.00253 0.01779,-0.0059 0.026182,-0.010069 0.1828881,-0.089786 0.390749,-0.1523585 0.6046979,-0.164643 0.011554,-5.155e-4 0.021587,-0.00129 0.027692,-0.00152 0.00108,4.4e-6 0.00193,4.4e-6 0.00302,0 h 0.00101 c 0.00134,1.8e-5 0.00269,1.8e-5 0.00403,0 0.044719,-0.00168 0.090006,-0.00139 0.1354403,5.156e-4 0.1796177,0.00754 0.3594437,0.047792 0.5241385,0.1102653 5.156e-4,1.707e-4 0.00101,3.352e-4 0.00152,5.156e-4 0.023103,0.0084 0.047238,0.01465 0.071496,0.018631 l -0.01158,-0.00201 1.8357439,0.4546563 c 6.96e-4,1.763e-4 0.00131,3.351e-4 0.00201,5.156e-4 1.678e-4,2e-7 3.351e-4,2e-7 5.155e-4,0 -0.00217,-5.156e-4 0.033578,0.012281 0.059916,0.025176 0.013171,0.00645 0.025452,0.012871 0.033734,0.017622 0.00828,0.00475 0.018014,0.014694 -5.156e-4,-0.00201 0.022693,0.020484 0.042295,0.061952 0.043804,0.091132 9.796e-4,0.024959 -0.020007,0.083402 -0.034741,0.099692 -0.015449,0.017073 -0.06727,0.041445 -0.09365,0.043301 -0.00142,-8.2e-6 -0.00288,1.39e-5 -0.00453,0 -3.352e-4,-10e-7 -6.703e-4,-10e-7 -0.00101,0 h -0.00152 L 5.9613862,8.7877063 C 5.7146195,8.7851284 5.5108229,8.9851406 5.5082403,9.2312856 5.5056882,9.476799 5.704418,9.6828198 5.9523231,9.6854384 l 1.8594082,0.019133 c 0.020386,3.351e-4 0.039446,-2.56e-4 0.057398,-0.00101 h 5.156e-4 0.00655 c 3.351e-4,10e-7 6.703e-4,10e-7 0.00101,0 C 8.1513707,9.690076 8.4077991,9.5678335 8.5911522,9.3657208 8.764707,9.1743994 8.8540883,8.9229223 8.8524663,8.6628412 l 0.00352,-0.00152 1.8679677,-0.9601654 c 3.35e-4,-1.666e-4 6.7e-4,-3.352e-4 10e-4,-5.156e-4 0.01807,-0.00944 0.03546,-0.020115 0.05186,-0.032224 0.04632,-0.033379 0.126432,-0.061886 0.171189,-0.064951 z" class="color000000 svgShape"/><path d="M1.4082694 10.751301c.0002784.0089.00296-.03008 0 0zM1.2541998 10.600253c.0004563-.000017.00186-.000017.00252 0-.00515.000386-.012457.000799-.014098.001-.00161.000207-.00186-.000515.01158-.001zM1.2335566 8.8878653c.00418.0007991.014879.00178.024168.00253-.0006419.0000343-.00303-5e-7-.00302 0 .0000996.0000031-.010428-.0006187-.013594-.00101-.012667-.00157-.010727-.00211-.00755-.00152zM1.4072624 8.7262433c.0003352.00369.00101.012755.00101.013593-.000348-.00499-.0008172-.011995-.00101-.013593zM4.4121224 7.9579094c-.0000944.0006445-.00137.014787-.00152.016615-.0000157-.0004641 5e-7-.00253 0-.00253-.0000062.0001263.0016-.014769.00152-.014099zM10.8911 6.7223319c-.0089.00157-.03581.00784-.02719.00453.01865-.00311.01676-.00279.02719-.00453zM8.1002252 11.487915c.00742-.0013.029959-.0054.022657-.003-.00393.000515-.019033.0025-.022657.003z" class="color000000 svgShape"/></g><g class="color000000 svgShape" transform="translate(24.22 7.153)"><path d="m 5.4497964,3.0416748 c -0.4604517,0 -0.837158,0.377789 -0.837158,0.8381916 v 0.478007 H 3.8266399 c -0.6531298,0 -1.1895916,0.5365422 -1.1895916,1.1895916 v 2.9217855 c 0,0.6531792 0.5369531,1.1890742 1.1895916,1.1890745 H 4.9857421 7.7142577 8.87336 c 0.6526424,0 1.189592,-0.5358955 1.189592,-1.1890745 V 5.547465 c 0,-0.6530494 -0.5364628,-1.1895921 -1.189592,-1.1895916 H 8.0873615 v -0.478007 c 0,-0.460402 -0.376709,-0.8381916 -0.8371581,-0.8381916 H 6.6889973 6.0110025 Z m 0.03669,0.8764323 H 6.0110025 6.6889973 7.2129964 V 4.3578734 H 5.4864867 Z M 3.8266399,5.2327555 h 1.1591022 2.7274822 1.1606524 c 0.1762495,0 0.3141927,0.1378958 0.3141927,0.3152262 v 2.9207518 c 0,0.1768038 -0.138893,0.3152264 -0.3141927,0.3152264 H 7.7132243 4.9857421 3.8266399 c -0.1749865,0 -0.3152265,-0.1398783 -0.3152265,-0.3152264 V 5.5479817 c 0,-0.1758762 0.139287,-0.3152262 0.3152265,-0.3152262 z" class="color000000 svgShape"/><path d="m 23.537109,21.667969 c -0.700235,0 -1.277343,0.577112 -1.277343,1.277343 v 1.914063 h -1.914063 c -0.700234,0 -1.277344,0.577111 -1.277344,1.277344 V 27.0625 c 0,0.700234 0.577111,1.277344 1.277344,1.277344 h 1.914063 v 1.914062 c 0,0.700235 0.577111,1.277344 1.277343,1.277344 h 0.925782 c 0.700233,0 1.277343,-0.577111 1.277343,-1.277344 v -1.914062 h 1.914063 c 0.700234,0 1.277344,-0.577111 1.277344,-1.277344 v -0.925781 c 0,-0.700235 -0.577113,-1.277344 -1.277344,-1.277344 h -1.914063 v -1.914063 c 0,-0.700233 -0.577111,-1.277343 -1.277343,-1.277343 z" class="color000000 svgShape" transform="scale(.26458)"/></g></g></svg>